<svg id="Layer_1" data-name="Layer 1" xmlns="http://www.w3.org/2000/svg" viewBox="0 0 300 300"><defs><style>.cls-1{fill:#fff;}</style></defs><path class="cls-1" d="M328.57-610.62H163.31a28.73,28.73,0,0,0-28.74,28.73v242.53a28.74,28.74,0,0,0,28.74,28.74H405.84a28.73,28.73,0,0,0,28.73-28.74V-504.62Zm42.27,265H198.31a28.74,28.74,0,0,1-28.74-28.74V-546.89a28.73,28.73,0,0,1,28.74-28.73H305.57v67.26a28.74,28.74,0,0,0,28.74,28.74h65.26v105.26A28.73,28.73,0,0,1,370.84-345.62Z" transform="translate(-134.57 610.62)"/></svg>