<svg id="Layer_1" data-name="Layer 1" xmlns="http://www.w3.org/2000/svg" viewBox="0 0 300 300"><defs><style>.cls-1{fill:#FFF;}</style></defs><rect class="cls-1" y="265" width="300" height="35" rx="17.5"/><path class="cls-1" d="M493.06-247a16.45,16.45,0,0,0-24.47,0l-28.15,30.28v-149.2c0-10.29-7.75-18.62-17.31-18.62s-17.3,8.33-17.3,18.62v149.2L377.68-247a16.46,16.46,0,0,0-24.48,0,19.63,19.63,0,0,0,0,26.33l45.46,48.89c1.19,1.52,9.89,12.24,24.47,12.24a31.94,31.94,0,0,0,24.48-12.24l45.45-48.89A19.63,19.63,0,0,0,493.06-247Z" transform="translate(-273.13 384.55)"/></svg>