<svg id="Layer_1" data-name="Layer 1" xmlns="http://www.w3.org/2000/svg" viewBox="0 0 300 300"><defs><style>.cls-1{fill:#fff;}</style></defs><path class="cls-1" d="M150,0A150,150,0,1,0,300,150,150,150,0,0,0,150,0Zm73.23,148.18c-2,9.84-6.12,18.56-13.49,25.57-6.61,6.29-14.76,9.59-23.34,12.07-5.21,1.5-10.58,2.12-16.2,3,6.75,5.16,9.59,11.88,9.56,19.95,0,6.44,0,12.88,0,19.37L180,228a103.1,103.1,0,0,1-60,.36c0-6,0-12,0-17.94,0-8.48,2.18-16.09,9.53-21.62a21,21,0,0,0-2.69-.58,76.63,76.63,0,0,1-16.64-3.42c-14.12-4.31-24.91-12.57-30.57-26.54-3.79-9.38-4.81-19.23-4.62-29.3A43.62,43.62,0,0,1,86.27,99.85,1.57,1.57,0,0,0,86.61,98c-3.29-9.63-2.41-19.14.9-28.59a2.48,2.48,0,0,1,2.78-1.9,34.29,34.29,0,0,1,10.47,1.83,93.64,93.64,0,0,1,18.17,9.46,3.22,3.22,0,0,0,2.83.83,105.25,105.25,0,0,1,20-3.36,107.14,107.14,0,0,1,34.42,2.83,6.68,6.68,0,0,0,5.9-.94c7.45-5,15.39-8.94,24.3-10.65,2.7-.52,5.22.13,5.79,1.68,3.36,9.06,4.28,18.29,1.38,27.63a3.85,3.85,0,0,0,1,4.2,42.42,42.42,0,0,1,10,23.52A77.38,77.38,0,0,1,223.23,148.18Z"/></svg>