<svg id="Layer_1" data-name="Layer 1" xmlns="http://www.w3.org/2000/svg" viewBox="0 0 300 300"><defs><style>.cls-1{fill:#fff;}</style></defs><path class="cls-1" d="M1737.54,1099.11a150,150,0,1,0,150,150A150,150,0,0,0,1737.54,1099.11Zm-6.49,210.7c0,2.9-1.48,4.18-4.34,4.18-4.21,0-8.41.08-12.61,0-6.21-.06-6.68-.48-6.7-6.42,0-14.43,0-28.86,0-43.29a98.9,98.9,0,0,0-.61-11.28c-1-8.46-4.44-12.68-11-14-8.51-1.71-17,1.66-20.94,8.47-3.43,5.92-3.93,12.52-4,19.08-.18,13.44-.06,26.89-.09,40.33,0,6.69-.39,7-7,7.11-3,0-6.06,0-9.08,0-6.37-.07-7-.6-7-6.74q-.06-29,0-58t0-58c0-6.54.48-6.94,7.2-7,3.54,0,7.07.11,10.6,0,3.91-.15,5.38,1.59,5.35,5.32-.1,12.62-.07,25.25,0,37.87,0,1.86-1,4.47,1.11,5.39,1.87.81,3-1.67,4.29-2.79,10.37-8.84,22.15-11.34,35.25-7.33,11.13,3.41,17.37,11.2,18.55,22.28C1732.23,1266.5,1730.7,1288.18,1731.05,1309.81Zm96.34-.79c0,3.52-1.65,5.08-5.23,5-4-.07-8.08-.15-12.1,0-4.44.21-5.87-1.79-5.83-5.92.14-14.1.1-28.2,0-42.3a122.48,122.48,0,0,0-.65-12.26c-1-9.17-4.77-13.68-12-14.69-9.33-1.3-17.36,2.59-20.9,10.31-2.59,5.65-3,11.73-3.08,17.82-.08,13.44,0,26.89,0,40.33,0,6.23-.45,6.62-6.94,6.67-3.54,0-7.08-.17-10.6,0-4.64.29-6.16-1.66-6.12-6.08.16-19.68.07-39.35.07-59,0-19.51.11-39-.08-58.53-.05-4.67,1.52-6.65,6.4-6.29a83.76,83.76,0,0,0,11.09,0c4.52-.27,6.33,1.41,6.26,6-.21,12.79-.1,25.58,0,38.37,0,1.52-.79,3.68,1.18,4.36,1.56.54,2.51-1.33,3.58-2.29,9.16-8.29,19.83-11.37,32.11-8.87,13.47,2.73,21.7,11.41,22.44,24.87C1828.07,1267.36,1827.25,1288.2,1827.39,1309Z" transform="translate(-1587.54 -1099.11)"/></svg>