<svg id="Layer_1" data-name="Layer 1" xmlns="http://www.w3.org/2000/svg" viewBox="0 0 300 300"><defs><style>.cls-1{fill:#fff;}</style></defs><g id="_7CaKKx.tif" data-name="7CaKKx.tif"><path class="cls-1" d="M493-370.08v170.92A16.11,16.11,0,0,1,482.26-189H379.08c-4.46-1.73-8-4.42-9.41-9.25a26.26,26.26,0,0,1-.73-7.4c0-19.42.14-38.84-.14-58.25-.19-13-10.4-24-22.68-25.3-14.7-1.51-26.78,6.45-30.16,19.92a40.05,40.05,0,0,0-1,9.77c0,18.32-.19,36.65.09,55,.11,7.68-2.77,12.82-9.9,15.55h-102A14.5,14.5,0,0,1,193-199.16V-370.08c2.19-11.86,9-20.21,18.75-27.15,40.66-29,81.08-58.45,121.58-87.75a25.94,25.94,0,0,1,7.58-4h4.18a25.3,25.3,0,0,1,7.37,3.8c40.74,29.48,81.42,59.05,122.31,88.31C484.31-390.06,490.89-381.73,493-370.08Zm-35.34,75.77c0-22-.07-44,0-66a12.67,12.67,0,0,0-5.63-11.24q-53.46-38.73-106.83-77.61c-1.88-1.37-3.2-1.38-5.08,0-11.27,8.25-22.63,16.38-34,24.54q-36.33,26.21-72.69,52.37c-3.69,2.65-5.81,5.84-5.81,10.58q.09,66.95,0,133.89c0,3.48.08,3.55,3.59,3.55h59c3.72,0,3.78-.06,3.79-3.93,0-12.79,0-25.59,0-38.38a58.78,58.78,0,0,1,1.08-11.23c4.88-25.59,30.65-43.11,56.16-38.2a48.91,48.91,0,0,1,40,48.07c.08,13.44,0,26.87,0,40.31,0,3.86.06,3.92,3.8,3.92h58.69c3.83,0,3.84,0,3.84-3.85Q457.67-260.92,457.66-294.31Z" transform="translate(-193 489)"/></g></svg>