<svg id="Layer_1" data-name="Layer 1" xmlns="http://www.w3.org/2000/svg" viewBox="0 0 300 300"><defs><style>.cls-1{fill:#fff;}</style></defs><path class="cls-1" d="M1762.92,1557.63c-9.91-9.53-19.85-19-29.72-28.59-1-.94-1.46-.68-2.28.11q-8.79,8.52-17.64,17c-3.45,3.3-6.06,3.3-9.49,0-5.89-5.65-11.79-11.28-17.63-17-1-.93-1.44-.93-2.41,0q-14.4,13.93-28.89,27.79c-.48.47-1.15.81-1.36,1.72h110C1763.57,1558.06,1763.18,1557.87,1762.92,1557.63Z" transform="translate(-1558.56 -1369.05)"/><path class="cls-1" d="M1665.5,1518q-13.35-12.7-26.59-25.5a11.37,11.37,0,0,1-.87-.83c-.77-.86-1.07-.44-1.32.41a14.32,14.32,0,0,0-.5,3.91v23c0,7.69,0,15.37,0,23a15.42,15.42,0,0,0,.38,3.59c.39,1.7.55,1.73,1.82.51q13.54-13,27.1-26C1666.46,1519.28,1666.44,1518.85,1665.5,1518Z" transform="translate(-1558.56 -1369.05)"/><path class="cls-1" d="M1652.12,1478.94q27.64,26.58,55.28,53.16c1.17,1.13,1.67.6,2.52-.22q18.21-17.54,36.47-35.05l19.9-19.09h-115C1651.35,1478.41,1651.8,1478.64,1652.12,1478.94Z" transform="translate(-1558.56 -1369.05)"/><path class="cls-1" d="M1779.8,1491a4.94,4.94,0,0,0-.57.45q-13.9,13.35-27.83,26.67c-.9.86-.67,1.28.08,2,5.08,4.82,10.11,9.68,15.16,14.53l13.15,12.61a8.36,8.36,0,0,0,1-4.66q0-23.47,0-46.95A7.85,7.85,0,0,0,1779.8,1491Z" transform="translate(-1558.56 -1369.05)"/><path class="cls-1" d="M1708.56,1369.05a150,150,0,1,0,150,150A150,150,0,0,0,1708.56,1369.05Zm89.87,182c-.07,8.75-3.83,15.83-11,21-3.77,2.74-8.05,4-12.48,5h-132.6a2.25,2.25,0,0,0-.6-.3c-13.58-1.5-23.37-13.44-23.16-27.11.31-20.39.08-40.8.07-61.21a29.34,29.34,0,0,1,.76-7.41c3.16-12.21,13.52-19.92,26.95-19.92q62.2,0,124.41,0a31.72,31.72,0,0,1,6.32.51c12.55,2.56,21.24,12.69,21.35,25.49Q1798.71,1519.06,1798.43,1551Z" transform="translate(-1558.56 -1369.05)"/></svg>