<svg id="Layer_1" data-name="Layer 1" xmlns="http://www.w3.org/2000/svg" viewBox="0 0 300 300"><defs><style>.cls-1{fill:#fff;}</style></defs><path class="cls-1" d="M284.68-610.62A150,150,0,0,0,134.57-460.51c.06,81.54,68.36,149.83,149.9,149.89a150,150,0,0,0,150.1-150.11C434.52-542.27,366.22-610.56,284.68-610.62Zm1,275A125,125,0,0,1,159.58-461.71c.58-67.87,56-123.33,123.91-123.91A125,125,0,0,1,409.57-459.53C409-391.67,353.53-336.2,285.66-335.63Z" transform="translate(-134.57 610.62)"/><path class="cls-1" d="M299.84-459.68a32.33,32.33,0,0,1-13.77,3.06A32.34,32.34,0,0,1,271.71-460a125,125,0,0,0-95.41,61.85A125.74,125.74,0,0,0,199-369.5a92,92,0,0,1,85.56-58.12,92,92,0,0,1,85.5,58,126.52,126.52,0,0,0,22.71-28.58A125,125,0,0,0,299.84-459.68Z" transform="translate(-134.57 610.62)"/><path class="cls-1" d="M286.07-539.12a50,50,0,0,0-50,50,50,50,0,0,0,50,50,50,50,0,0,0,50-50A50,50,0,0,0,286.07-539.12Zm0,82.5a32.5,32.5,0,0,1-32.5-32.5,32.5,32.5,0,0,1,32.5-32.5,32.5,32.5,0,0,1,32.5,32.5A32.5,32.5,0,0,1,286.07-456.62Z" transform="translate(-134.57 610.62)"/></svg>