<svg id="Layer_1" data-name="Layer 1" xmlns="http://www.w3.org/2000/svg" viewBox="0 0 300 300"><defs><style>.cls-1{fill:#fff;}</style></defs><circle class="cls-1" cx="202.4" cy="97.6" r="32.5"/><path class="cls-1" d="M430.66-553.24a201.22,201.22,0,0,0,4-37.93v-.22a19.34,19.34,0,0,0-19.28-19.29h-.23a200.57,200.57,0,0,0-37.92,4c-77.46,16.34-130.44,78.46-152.69,109.1a19.42,19.42,0,0,0,2,25.17l35,35,35,35a19.42,19.42,0,0,0,25.17,2C352.2-422.81,414.32-475.78,430.66-553.24Zm-129,75.51a50,50,0,0,1,0-70.71,50,50,0,0,1,70.71,0,50,50,0,0,1,0,70.71A50,50,0,0,1,301.69-477.73Z" transform="translate(-134.64 610.68)"/><path class="cls-1" d="M403-433.69l-4-18.44a11.22,11.22,0,0,0-.33-1.17c-23.16,30.23-49.9,51.91-67,64.19a19.24,19.24,0,0,1-5.08,2.6,35.63,35.63,0,0,0,3.89,14.42l4.74,9.24c3.21,6.26,11.51,7.74,16.33,2.92l42.46-42.46A34,34,0,0,0,403-433.69Z" transform="translate(-134.64 610.68)"/><path class="cls-1" d="M257.64-579.09l18.44,4a11.22,11.22,0,0,1,1.17.33c-30.23,23.16-51.91,49.9-64.19,67a19.09,19.09,0,0,0-2.6,5.08,35.8,35.8,0,0,1-14.42-3.9l-9.24-4.74c-6.26-3.21-7.74-11.51-2.92-16.33l42.46-42.46A34,34,0,0,1,257.64-579.09Z" transform="translate(-134.64 610.68)"/><path class="cls-1" d="M280.79-370.57l.4-.21a9.18,9.18,0,0,0,2.25-14.63l-74.08-74.08a9.18,9.18,0,0,0-14.63,2.26l-.2.39a43.22,43.22,0,0,0,7.79,50.45l28,28A43.25,43.25,0,0,0,280.79-370.57Z" transform="translate(-134.64 610.68)"/><rect class="cls-1" x="161.48" y="-390.69" width="15.19" height="91.12" rx="7.59" transform="translate(-329.15 390.04) rotate(45)"/><rect class="cls-1" x="193.7" y="-364.76" width="15.19" height="60.75" rx="7.59" transform="translate(-312.12 370.41) rotate(45)"/><rect class="cls-1" x="150.74" y="-407.72" width="15.19" height="60.75" rx="7.59" transform="translate(-355.08 388.2) rotate(45)"/></svg>