<svg id="Layer_1" data-name="Layer 1" xmlns="http://www.w3.org/2000/svg" viewBox="0 0 300 300"><defs><style>.cls-1{fill:#fff;}</style></defs><path class="cls-1" d="M1708.56,1369.05a150,150,0,1,0,150,150A150,150,0,0,0,1708.56,1369.05Zm74.67,98.5q-4,18.63-7.94,37.28-4.1,19.17-8.21,38.33c-2.17,10.15-4.29,20.32-6.47,30.46a16.83,16.83,0,0,1-1.25,3.66c-1.84,3.93-5,5.13-9.1,3.62-2.62-1-4.71-2.76-6.92-4.37q-14.33-10.46-28.6-21c-1-.77-1.64-.57-2.48.24-5.42,5.25-10.88,10.45-16.32,15.67a8,8,0,0,1-4.15,2.26c-1.57.27-1.92.06-1.84-1.52.18-3.55.44-7.1.69-10.65q.55-7.72,1.13-15.44c.16-2.11.38-4.21.53-6.32a3,3,0,0,1,1.16-2.09c6.78-6,13.52-12.14,20.29-18.2,7.31-6.54,14.65-13,22-19.6,4-3.55,7.86-7.16,11.81-10.73,2.22-2,4.49-4,6.72-6a20.92,20.92,0,0,0,2.42-2.38c.76-.92.37-1.69-.82-1.78a6,6,0,0,0-3.76,1.22l-32,20-38.73,24.27c-2.24,1.39-4.48,2.78-6.68,4.23a3.35,3.35,0,0,1-3.07.4c-9.46-3-18.94-5.88-28.4-8.85a42.74,42.74,0,0,1-5.74-1.87c-1.76-.83-3.54-1.82-3.81-3.93s1.4-3.35,2.88-4.47c2.47-1.88,5.51-2.59,8.33-3.7,8.66-3.39,17.35-6.68,26-10q22.14-8.46,44.29-16.92,18.66-7.15,37.31-14.35c7-2.69,14-5.35,21-8a7.23,7.23,0,0,1,2.92-.51c4.2,0,6.2,1.63,7,5.45A13.55,13.55,0,0,1,1783.23,1467.55Z" transform="translate(-1558.56 -1369.05)"/></svg>