<svg id="Layer_1" data-name="Layer 1" xmlns="http://www.w3.org/2000/svg" viewBox="0 0 300 300"><defs><style>.cls-1{fill:#fff;}</style></defs><path class="cls-1" d="M1708.56,1369.05a150,150,0,1,0,150,150A150,150,0,0,0,1708.56,1369.05Zm74.58,155.85a73.73,73.73,0,0,1-48.38,61.57,75.22,75.22,0,0,1-22.5,4.32A74,74,0,0,1,1675,1582a1.47,1.47,0,0,0-1.26-.13l-15,4.81q-7.12,2.26-14.24,4.55l-10.26,3.36c-.2-.08-.49.17-.63-.16.15-.36.31-.71.44-1.08q3.35-9.94,6.68-19.88,3-8.75,5.94-17.49a1.69,1.69,0,0,0-.15-1.54A69.37,69.37,0,0,1,1639,1537a73.92,73.92,0,0,1-2.4-26.19,72.95,72.95,0,0,1,15.65-39.42,73.66,73.66,0,0,1,42.22-26.23,74.15,74.15,0,0,1,23.9-1.15,71.8,71.8,0,0,1,29.74,10.2,73.78,73.78,0,0,1,33.08,44.55A72.74,72.74,0,0,1,1783.14,1524.9Z" transform="translate(-1558.56 -1369.05)"/><path class="cls-1" d="M1761.86,1492.46a57,57,0,0,0-12.09-16.74,58,58,0,0,0-15.78-10.81,57.18,57.18,0,0,0-24-5.29,56.31,56.31,0,0,0-5.66.29,54,54,0,0,0-11.88,2.42,57.73,57.73,0,0,0-36.3,34.55,58.42,58.42,0,0,0-3.71,19.65,55.59,55.59,0,0,0,.57,8.44,56.61,56.61,0,0,0,5.63,18.12,57.28,57.28,0,0,0,4.37,7.24,1.26,1.26,0,0,1,.18,1.24c-.81,2.42-1.6,4.85-2.41,7.27q-2.07,6.18-4.15,12.35c-.08.24-.31.54-.08.76s.51,0,.75-.1q10.14-3.24,20.26-6.5a1.43,1.43,0,0,1,1.37.19,56,56,0,0,0,15.94,7.13,57.28,57.28,0,0,0,20.65,1.72,56.38,56.38,0,0,0,22.9-7.28,57.47,57.47,0,0,0,17.33-15.18,56.66,56.66,0,0,0,9-17.43,57.72,57.72,0,0,0,2.42-22.47A55.9,55.9,0,0,0,1761.86,1492.46Zm-13.69,48c-1.49,6.74-7.87,11.69-14.67,12.92s-13.83-.71-20-3.86c-16.8-8.62-33.56-23.56-38.75-42.32-1.39-5-1.88-10.44-.31-15.41s5.48-9.39,10.55-10.59a7.39,7.39,0,0,1,6.38,1.07,10,10,0,0,1,2.5,4.06c1.37,3.39,2.62,6.84,3.74,10.32.78,2.44,1.47,5.24.15,7.44-1.42,2.36-4.87,3.43-5.26,6.16a6.07,6.07,0,0,0,1.14,3.78,52.72,52.72,0,0,0,23.69,21.4,4.29,4.29,0,0,0,2.28.54,4.46,4.46,0,0,0,2.55-1.81l5.45-6.28a3.63,3.63,0,0,1,1.64-1.27,3.57,3.57,0,0,1,2.4.51q6.9,3.3,13.58,7.06c.25.14.5.28.74.43a5.37,5.37,0,0,1,1.75,1.56A5.62,5.62,0,0,1,1748.17,1540.5Z" transform="translate(-1558.56 -1369.05)"/></svg>